<?xml version="1.0" encoding="utf-8"?>
<!-- Generator: Adobe Illustrator 27.0.0, SVG Export Plug-In . SVG Version: 6.00 Build 0)  -->
<svg version="1.1"
	 id="svg3390" xmlns:dc="http://purl.org/dc/elements/1.1/" xmlns:svg="http://www.w3.org/2000/svg" xmlns:rdf="http://www.w3.org/1999/02/22-rdf-syntax-ns#" xmlns:cc="http://creativecommons.org/ns#"
	 xmlns="http://www.w3.org/2000/svg" xmlns:xlink="http://www.w3.org/1999/xlink" x="0px" y="0px" viewBox="0 0 1113 215.1"
	 style="enable-background:new 0 0 1113 215.1;" xml:space="preserve">
<style type="text/css">
	.st0{fill:#F4A901;}
	.st1{fill:#05AAE7;}
	.st2{fill:#A9C701;}
	.st3{fill:#C7007B;}
	.st4{fill:#E5001D;}
	.st5{fill:#008663;}
	.st6{fill:#010101;}
</style>
<g id="g3400" transform="translate(-83.729906,-85.898217)">
	<path id="path3414" class="st0" d="M1153.3,223.2c-20.1-2.7-21-2.8-21.5-3.4c-0.4-0.5-0.5-0.9-0.4-1.6c0.3-1.8,0.7-8.6,0.7-11.8
		c0-3.1-0.4-10-0.7-11.7c-0.1-0.6,0-1,0.3-1.4c0.4-0.5,2.2-0.8,22.5-3.5c15.4-2,22.2-2.8,22.5-2.6c0.6,0.3,0.7,0.7,1.1,3.3
		c1,7.7,1,21.5,0.2,30.4c-0.5,4.9-0.6,5.2-2.6,5.2C1174.8,226,1164.8,224.7,1153.3,223.2L1153.3,223.2z"/>
	<path id="path3412" class="st1" d="M113.2,296.6c-5.3-7-11.9-18.2-16-27.2c-1.5-3.3-1.7-4.2-1.3-4.9c0.4-0.6,41.2-17.4,41.9-17.2
		c0.5,0.1,1.1,1.2,2.7,4.4c3,6.3,6.1,11.5,9.9,16.8c0.8,1.1,1,1.6,0.9,2.1c-0.2,1-34.8,27.4-36,27.5
		C114.5,298.2,114.3,298,113.2,296.6L113.2,296.6z"/>
	<path id="path3410" class="st2" d="M85.2,225.5c-1.5-1.6-2-22.7-0.9-33.5c0.4-4.1,0.6-4.9,1.5-5.1c0.5-0.2,43.4,5.4,44.3,5.8
		c0.9,0.3,1,1,0.7,3.6c-0.4,3-0.4,17.2,0,20.4c0.3,2.6,0.1,3.4-1.1,3.7c-0.9,0.2-42.7,5.6-43.4,5.6C85.9,226,85.5,225.8,85.2,225.5
		L85.2,225.5z"/>
	<path id="path3408" class="st3" d="M1128.7,284.6c-14.8-11.4-17.6-13.6-17.6-14.2c-0.1-0.6,0.3-1.3,1.5-3c3.6-5.1,7-10.9,9.7-16.7
		c1.2-2.5,1.7-3.2,2.2-3.4c0.5-0.1,6.1,2.1,20.5,8.1c10.9,4.5,20.2,8.4,20.6,8.7c1.2,0.6,1.2,1.4,0,4.1c-3.7,8.4-9.3,18.3-14.9,26.2
		c-2.3,3.2-2.9,3.8-3.7,3.8C1146.5,298.1,1141.1,294.2,1128.7,284.6L1128.7,284.6z"/>
	<path id="path3406" class="st4" d="M116.8,157.1c-11-4.6-20.1-8.5-20.4-8.7c-0.2-0.2-0.4-0.6-0.4-0.9c0-0.8,4-9.3,6.7-14.1
		c2.8-5,5.4-9.3,8.6-13.8c2.7-3.8,3.4-4.7,4.1-4.7c0.3,0,7.9,5.7,17,12.6c19.8,15.2,18.8,14.4,18.8,15.1c0,0.3-1,2-2.2,3.7
		c-3,4.3-5,7.7-8,13.7c-2.5,4.9-2.7,5.2-3.4,5.3C137,165.4,130,162.6,116.8,157.1L116.8,157.1z"/>
	<path id="path3404" class="st5" d="M1124.2,165.2c-0.2-0.3-1.4-2.5-2.6-5c-2.5-5-5.7-10.5-8.4-14.4c-1.1-1.6-1.8-2.8-1.8-3.2
		c0-0.6,2.1-2.4,17.5-14.1c12.8-9.8,17.7-13.4,18.3-13.5c0.8-0.1,1,0.1,2.9,2.7c5.7,7.9,12,18.9,15.8,27.7c0.8,2,0.9,2.2,0.5,2.7
		c-0.3,0.5-5.4,2.7-20.5,8.9c-11,4.6-20.3,8.4-20.7,8.4C1124.8,165.6,1124.5,165.5,1124.2,165.2L1124.2,165.2z"/>
	<path id="path3402" class="st6" d="M221.7,271.6c-15.6-1.4-31.1-9.8-41.6-22.7c-5.7-7-10.4-16.7-12.4-26c-1.3-5.7-1.6-8.8-1.6-15.8
		c0-11.5,1.9-20.2,6.5-29.8c8.5-17.5,24.3-29.6,44.4-34.3c7-1.6,18.2-2.2,26.2-1.4c31.3,3.3,54.4,22.5,60.2,49.9
		c1.4,6.4,1.3,5.3,1.4,41.7c0.1,24.1,0,34.4-0.2,34.8c-0.3,0.5-0.5,0.6-20,0.6c-14.9,0-19.8-0.1-20-0.3c-0.3-0.3-0.3-7.1-0.3-29.1
		c0-17.9-0.1-30-0.3-32c-0.5-6-2.2-11.7-4.7-16.1c-1.6-2.8-5.9-7.2-8.7-8.9c-6.9-4.1-17.2-5-25-2.4c-9.3,3.2-16.2,10.5-18.5,19.8
		c-0.5,1.9-0.6,3.2-0.6,6.2c0,4.3,0.4,7,1.8,10.7c3,8.3,10.5,15,19.3,17.3c5,1.3,13.2,0.9,20.4-1.1c1.7-0.5,3.5-0.9,4-0.9
		c1.5-0.1,1.5-0.2,1.5,16.9c-0.1,14.5-0.1,15.6-0.6,16.1c-0.8,0.9-6.2,3.5-9,4.4c-3,0.9-6,1.6-9.3,2
		C231.3,271.6,224.6,271.8,221.7,271.6L221.7,271.6z M692.7,132.5c-24.3,2.2-41.2,15-46.4,35.3c-0.3,1.3-0.8,3.7-1.1,5.2l-0.5,2.8
		l-0.1,46c-0.1,43.2,0,46,0.3,46.2c0.3,0.2,3.7,0.3,15.4,0.3c14.3,0,15,0,15.4-0.4c0.3-0.3,0.4-3.6,0.4-42.4c0-36.2,0-42.4,0.3-44.4
		c1-7,4.2-13.1,9.1-16.8c3.8-3,8.2-4.4,13.3-4.4c6.4,0,12.1,2.3,16.2,6.5c1.8,1.8,2.5,2.9,3.7,5.2c3,6.1,2.8,14-0.6,19.8
		c-4.2,7.3-12.6,11.3-22.1,10.4c-3.3-0.3-6-0.8-8.2-1.6c-2.3-0.8-2.8-0.8-3.1-0.4c-0.2,0.3-0.3,2.8-0.3,13.3
		c0,7.1,0.1,13.1,0.1,13.3c0.2,0.4,0.9,0.7,3.4,1.4c11.9,3.3,25.7,1.8,37.7-4c12.7-6.2,21.7-17,25.1-29.9c3-11.3,1.8-24.1-3.2-34.3
		c-6.5-13.3-18.9-22.6-34.6-25.9c-4.1-0.9-7-1.2-12.6-1.2C697.2,132.4,693.9,132.4,692.7,132.5L692.7,132.5z M325.4,268.2
		c-0.4-0.4-0.5-77.3,0-81.4c1.3-12.2,5.8-22.4,13.3-30.2c7.5-7.9,17-12.7,28.7-14.7c4-0.7,13.9-0.7,17.1,0c9.2,2,18.1,7.1,25.8,14.8
		c1.1,1.1,2.2,2.1,2.3,2.1c0.1,0,0.8-0.6,1.5-1.4c2-2.2,7.1-6.4,10-8.4c5.1-3.4,10.7-5.8,16.4-7.1c2.8-0.6,10.1-0.8,13.7-0.4
		c23.4,2.7,40.3,17.9,44.8,40.3c0.4,1.9,0.8,5.1,1,7.1c0.4,5,0.4,78.3,0,79c-0.3,0.5-0.8,0.5-20,0.5c-14.9,0-19.8-0.1-20-0.3
		c-0.3-0.3-0.3-8.5-0.3-35.6c0-21.9-0.1-36.4-0.3-38.2c-0.8-8.4-4.4-12.9-11-14c-5.8-0.9-10.8,1.8-13.4,7c-2.2,4.5-2,1.5-2.1,43.2
		c-0.1,26.4-0.2,37.3-0.4,37.5c-0.4,0.5-39.6,0.5-39.9,0c-0.1-0.2-0.3-17.3-0.4-37.9l-0.1-37.6l-0.6-2.1c-1.8-5.8-5.2-9.2-10.2-10.2
		c-3.3-0.6-7.2,0.2-9.7,1.9c-1.2,0.8-2.6,2.3-3.5,3.9c-0.7,1.2-1.8,4.4-2.1,6.5c-0.2,1.4-0.3,13-0.3,38.3c0,24.6-0.1,36.5-0.3,36.9
		c-0.3,0.5-0.8,0.5-20,0.5C330.4,268.5,325.6,268.4,325.4,268.2L325.4,268.2z M522.5,268c-0.2-0.4-0.3-20.1-0.3-61.7
		c0-55.2,0-61.2,0.4-61.6c0.4-0.4,2.6-0.4,20-0.4c14.8,0,19.6,0.1,19.9,0.3c0.5,0.5,0.5,123.1,0,123.6c-0.2,0.2-5.1,0.3-20,0.3
		C523.3,268.5,522.8,268.5,522.5,268L522.5,268z M585.4,267.9c-0.5-0.5-0.5-123.1,0-123.6c0.2-0.2,5.1-0.3,20-0.3
		c19.2,0,19.7,0,20,0.5c0.2,0.4,0.3,20,0.3,61.5c0,54.8,0,61-0.4,61.6l-0.4,0.6h-19.5C590.4,268.3,585.6,268.2,585.4,267.9
		L585.4,267.9z M538.1,132.1c-7.6-1.4-14-6.6-16.8-13.5c-1.3-3.3-1.6-4.9-1.6-9.2c0-3.5,0.1-4.5,0.6-6.3c1.8-6.4,5.9-11.4,11.7-14.3
		c3.7-1.8,6.1-2.4,10.6-2.4c4.6,0,6.8,0.5,11,2.6c2.5,1.3,3.2,1.7,5.5,4c2.3,2.3,2.8,3,4,5.5c1.6,3.2,2.2,5.4,2.5,8.6
		c1,11.4-5.6,21.3-16.3,24.4C546.1,132.4,541.3,132.7,538.1,132.1z M602.3,131.9c-2.8-0.3-5.4-1.2-8.4-2.7c-2-1-3-1.8-5-3.7
		c-2.9-2.9-4.4-5.2-5.6-8.8c-2.7-7.9-1.1-16.7,4-22.8c4.1-4.8,9.9-7.6,16.5-8c14.1-0.7,25.1,10.1,24.3,24.2
		c-0.2,3.6-0.7,5.8-2.1,8.9c-3.6,7.7-10.7,12.4-19.6,13C605.4,132.1,603.5,132,602.3,131.9L602.3,131.9z M765.4,267.9
		c-0.5-0.5-0.5-123.1,0-123.6c0.2-0.2,5.1-0.3,20-0.3c19.2,0,19.7,0,20,0.5c0.2,0.4,0.3,20,0.3,61.5c0,54.8,0,61-0.4,61.6l-0.4,0.6
		h-19.5C770.4,268.3,765.6,268.2,765.4,267.9L765.4,267.9z M782.3,131.9c-2.8-0.3-5.4-1.2-8.4-2.7c-2-1-3-1.8-5-3.7
		c-2.9-2.9-4.4-5.2-5.6-8.8c-2.7-7.9-1.1-16.7,4-22.8c4.1-4.8,9.9-7.6,16.5-8c14.1-0.7,25.1,10.1,24.3,24.2
		c-0.2,3.6-0.7,5.8-2.1,8.9c-3.6,7.7-10.7,12.4-19.6,13C785.4,132.1,783.5,132,782.3,131.9L782.3,131.9z"/>
</g>
</svg>
